<?xml version="1.0" standalone="no"?>
<!DOCTYPE svg PUBLIC "-//W3C//DTD SVG 20010904//EN"
 "http://www.w3.org/TR/2001/REC-SVG-20010904/DTD/svg10.dtd">
<svg version="1.0" xmlns="http://www.w3.org/2000/svg"
 width="260.000000pt" height="260.000000pt" viewBox="0 0 260.000000 260.000000"
 preserveAspectRatio="xMidYMid meet">
<metadata>
Created by potrace 1.14, written by Peter Selinger 2001-2017
</metadata>
<g transform="translate(0.000000,260.000000) scale(0.100000,-0.100000)"
fill="#000000" stroke="none">
<path d="M171 1931 c-18 -25 -21 -44 -21 -135 l0 -106 -75 0 -75 0 0 -80 0
-80 273 2 272 3 0 75 0 75 -117 3 -116 3 -4 59 -3 59 120 3 120 3 3 73 3 72
-180 0 -180 0 -20 -29z"/>
<path d="M2460 1826 l0 -135 -37 18 c-113 55 -185 55 -299 -1 -23 -11 -57 -34
-77 -51 -45 -40 -97 -142 -98 -193 0 -31 -2 -35 -9 -19 -5 11 -9 30 -9 43 -2
42 -54 133 -101 175 -55 49 -153 87 -226 87 -107 0 -223 -68 -283 -164 l-36
-59 0 -117 c0 -128 5 -144 63 -218 67 -85 162 -126 271 -119 88 6 118 15 166
47 84 58 133 130 151 225 l8 40 6 -45 c9 -64 42 -130 91 -178 39 -39 55 -49
132 -81 15 -6 58 -11 95 -11 61 0 88 7 162 37 20 9 26 8 29 -6 5 -25 21 -31
84 -31 l57 0 0 445 0 445 -70 0 -70 0 0 -134z m-743 -262 c104 -79 96 -268
-15 -321 -56 -27 -157 -24 -203 7 -54 35 -71 74 -70 159 1 81 16 119 63 155
40 30 67 36 137 30 38 -3 65 -12 88 -30z m655 10 c15 -8 40 -30 55 -51 25 -32
28 -44 28 -112 0 -120 -45 -175 -153 -188 -124 -14 -213 65 -212 189 0 32 28
110 48 131 47 52 161 67 234 31z"/>
<path d="M845 1738 c-132 -44 -205 -123 -244 -264 -16 -59 -14 -92 10 -164 26
-80 58 -130 106 -166 141 -108 331 -98 450 22 71 72 88 121 88 244 -1 125 -19
173 -94 243 -89 84 -218 118 -316 85z m176 -160 c63 -36 89 -85 89 -171 0 -79
-15 -115 -66 -153 -30 -24 -45 -27 -107 -28 -127 -1 -187 55 -187 175 0 106
35 158 130 193 24 9 116 -1 141 -16z"/>
<path d="M256 1295 c-3 -9 -6 -55 -6 -101 l0 -84 -51 0 c-43 0 -50 -3 -47 -17
3 -15 16 -19 75 -21 87 -3 85 -6 81 138 -3 88 -5 95 -24 98 -13 2 -24 -4 -28
-13z"/>
<path d="M1943 963 c-10 -3 -13 -40 -13 -133 0 -144 -2 -140 78 -140 63 0 113
26 126 68 l11 32 13 -28 c14 -34 78 -72 118 -72 36 0 94 34 94 55 0 20 -28 31
-43 16 -6 -6 -30 -11 -53 -11 -34 0 -47 5 -63 26 -12 15 -21 39 -21 54 0 15 9
39 21 54 16 21 29 26 63 26 23 0 47 -5 53 -11 14 -14 43 -5 43 14 0 8 -20 25
-44 38 -41 21 -48 22 -83 10 -61 -21 -92 -57 -99 -114 -6 -42 -9 -47 -21 -34
-12 11 -12 19 -4 35 23 43 3 85 -52 110 -28 12 -100 15 -124 5z m131 -70 c9
-23 -2 -31 -48 -35 -36 -3 -40 0 -47 25 -7 27 -7 27 41 27 35 0 50 -4 54 -17z
m0 -98 c33 -25 13 -45 -47 -45 l-54 0 5 30 c4 27 8 30 41 30 20 0 44 -7 55
-15z"/>
<path d="M2448 954 c-15 -8 -38 -28 -52 -45 -52 -62 -25 -172 50 -204 46 -19
81 -18 119 4 28 16 30 23 33 79 l3 62 -60 0 c-62 0 -75 -7 -65 -34 4 -10 18
-16 39 -16 37 0 48 -10 39 -34 -9 -22 -90 -22 -112 1 -25 24 -22 108 4 128 22
16 100 20 109 5 11 -19 45 -11 45 10 0 13 -14 27 -40 40 -45 23 -74 24 -112 4z"/>
<path d="M1450 831 c0 -128 7 -155 33 -132 8 6 18 6 27 1 43 -28 121 15 136
74 15 61 -34 120 -100 118 -43 0 -45 1 -48 31 -2 24 -8 33 -25 35 -23 3 -23 2
-23 -127z m124 6 c12 -9 17 -23 14 -47 -3 -32 -6 -35 -37 -38 -37 -4 -51 9
-51 47 0 23 24 50 46 51 5 0 18 -6 28 -13z"/>
<path d="M1640 880 c0 -5 13 -42 29 -83 28 -70 32 -119 10 -133 -19 -11 -8
-24 21 -24 17 0 30 5 30 10 0 10 10 34 66 158 29 64 30 82 3 82 -15 0 -27 -15
-46 -57 l-26 -58 -11 35 c-17 55 -35 80 -56 80 -11 0 -20 -4 -20 -10z"/>
</g>
</svg>
