<svg width="29" height="29" viewBox="0 0 29 29" fill="none" xmlns="http://www.w3.org/2000/svg">
<path d="M5.27541 25.6586V24.1651C5.28418 24.0395 5.26605 23.9135 5.22226 23.7954C5.17846 23.6774 5.11 23.57 5.02143 23.4805C4.93287 23.391 4.82624 23.3214 4.70865 23.2763C4.59107 23.2313 4.46523 23.2119 4.33954 23.2193C4.17503 23.2086 4.01066 23.2422 3.86356 23.3166C3.71646 23.391 3.59202 23.5035 3.50321 23.6424C3.42226 23.5077 3.30648 23.3973 3.16806 23.3228C3.02963 23.2483 2.87369 23.2126 2.71665 23.2193C2.57976 23.2124 2.44345 23.2414 2.32121 23.3034C2.19897 23.3654 2.09503 23.4582 2.01971 23.5727V23.279H1.50195V25.6586H2.02466V24.3394C2.01336 24.258 2.02023 24.1751 2.04477 24.0966C2.06931 24.0182 2.11092 23.9462 2.1666 23.8857C2.22229 23.8253 2.29067 23.7779 2.36683 23.747C2.443 23.7162 2.52506 23.7025 2.60712 23.7071C2.95061 23.7071 3.12487 23.9312 3.12487 24.3344V25.6586H3.64757V24.3394C3.63712 24.2581 3.64458 24.1755 3.66944 24.0975C3.69429 24.0194 3.73594 23.9478 3.79145 23.8875C3.84696 23.8272 3.91499 23.7799 3.99075 23.7487C4.06652 23.7176 4.14819 23.7034 4.23002 23.7071C4.58345 23.7071 4.75271 23.9312 4.75271 24.3344V25.6586H5.27541ZM13.0115 23.279H12.1652V22.5572H11.6425V23.279H11.1596V23.752H11.6425V24.8372C11.6425 25.3897 11.8566 25.7183 12.4689 25.7183C12.6976 25.719 12.9219 25.6552 13.116 25.5341L12.9667 25.0911C12.8279 25.1739 12.6703 25.2201 12.5087 25.2255C12.2498 25.2255 12.1652 25.0661 12.1652 24.8273V23.752H13.0115V23.279ZM17.4272 23.2193C17.3009 23.2156 17.176 23.246 17.0656 23.3073C16.9553 23.3686 16.8635 23.4586 16.7999 23.5678V23.279H16.2872V25.6586H16.8049V24.3244C16.8049 23.9312 16.9741 23.7121 17.3127 23.7121C17.4234 23.7106 17.5334 23.7309 17.6363 23.7719L17.7955 23.284C17.6773 23.2417 17.5527 23.2198 17.4272 23.2193V23.2193ZM10.7514 23.4682C10.4584 23.2939 10.1214 23.2075 9.78068 23.2193C9.17831 23.2193 8.79004 23.508 8.79004 23.9809C8.79004 24.3693 9.07876 24.6082 9.6114 24.6829L9.85534 24.7177C10.1391 24.7575 10.2735 24.8322 10.2735 24.9666C10.2735 25.1508 10.0843 25.2554 9.73089 25.2554C9.44659 25.2635 9.1678 25.1759 8.93935 25.0064L8.69544 25.4097C8.997 25.6203 9.35823 25.7285 9.72591 25.7183C10.4129 25.7183 10.8111 25.3947 10.8111 24.9417C10.8111 24.5235 10.4975 24.3045 9.97981 24.2298L9.7359 24.195C9.51185 24.1651 9.33266 24.1204 9.33266 23.9611C9.33266 23.7868 9.50186 23.6822 9.78566 23.6822C10.0462 23.6862 10.3015 23.7564 10.5274 23.8864L10.7514 23.4682ZM24.6206 23.2193C24.4944 23.2156 24.3695 23.246 24.2591 23.3073C24.1487 23.3686 24.0569 23.4586 23.9934 23.5678V23.279H23.4806V25.6586H23.9983V24.3244C23.9983 23.9312 24.1676 23.7121 24.5061 23.7121C24.6169 23.7106 24.7268 23.7309 24.8297 23.7719L24.989 23.284C24.8708 23.2417 24.7462 23.2198 24.6206 23.2193V23.2193ZM17.9498 24.4688C17.943 24.6364 17.9713 24.8036 18.0329 24.9597C18.0945 25.1157 18.1881 25.2571 18.3077 25.3748C18.4273 25.4925 18.5702 25.5839 18.7272 25.6431C18.8842 25.7022 19.0518 25.7279 19.2193 25.7183C19.5302 25.734 19.8356 25.6327 20.0755 25.4346L19.8266 25.0164C19.6477 25.1528 19.4294 25.2279 19.2044 25.2304C19.0104 25.2187 18.8281 25.1333 18.6949 24.9918C18.5617 24.8502 18.4875 24.6632 18.4875 24.4688C18.4875 24.2744 18.5617 24.0874 18.6949 23.9458C18.8281 23.8043 19.0104 23.7189 19.2044 23.7071C19.4294 23.7097 19.6477 23.7848 19.8266 23.9212L20.0755 23.503C19.8356 23.3049 19.5301 23.2037 19.2193 23.2193C19.0518 23.2098 18.8842 23.2354 18.7272 23.2946C18.5702 23.3537 18.4273 23.4451 18.3077 23.5627C18.1882 23.6804 18.0946 23.8218 18.0329 23.9779C17.9713 24.1339 17.943 24.3011 17.9498 24.4688V24.4688ZM22.7986 24.4688V23.279H22.2809V23.5678C22.1925 23.4539 22.0781 23.3628 21.9474 23.3022C21.8166 23.2416 21.6732 23.2131 21.5292 23.2193C21.2084 23.235 20.9059 23.3735 20.6844 23.6061C20.4629 23.8387 20.3394 24.1476 20.3394 24.4688C20.3394 24.79 20.4629 25.0989 20.6844 25.3315C20.9059 25.5641 21.2084 25.7026 21.5292 25.7183C21.6732 25.7245 21.8166 25.6961 21.9474 25.6354C22.0782 25.5748 22.1925 25.4837 22.2809 25.3698V25.6586H22.7986V24.4688ZM20.872 24.4688C20.8801 24.3283 20.929 24.1933 21.0129 24.0804C21.0967 23.9675 21.2118 23.8816 21.3438 23.8332C21.4759 23.7849 21.6193 23.7763 21.7562 23.8085C21.8931 23.8407 22.0176 23.9122 22.1144 24.0143C22.2111 24.1164 22.2759 24.2445 22.3007 24.383C22.3254 24.5214 22.3092 24.6641 22.2538 24.7934C22.1985 24.9227 22.1065 25.033 21.9893 25.1106C21.872 25.1883 21.7346 25.23 21.5939 25.2304C21.4953 25.2318 21.3975 25.2127 21.3067 25.1743C21.2159 25.136 21.134 25.0793 21.0661 25.0077C20.9983 24.9362 20.9461 24.8513 20.9127 24.7586C20.8793 24.6658 20.8654 24.5671 20.872 24.4688V24.4688ZM14.6245 23.2193C14.3016 23.2363 13.9979 23.3777 13.777 23.6138C13.5561 23.8498 13.4352 24.1623 13.4397 24.4856C13.4443 24.8089 13.5738 25.1178 13.8012 25.3477C14.0285 25.5775 14.3361 25.7104 14.6593 25.7183C15.0145 25.7308 15.3618 25.6121 15.635 25.3848L15.3811 25.0015C15.1845 25.159 14.9411 25.2466 14.6892 25.2504C14.5181 25.2648 14.3481 25.212 14.2153 25.1033C14.0824 24.9946 13.997 24.8384 13.9773 24.6679H15.7446C15.7495 24.6032 15.7545 24.5385 15.7545 24.4688C15.7495 23.7271 15.2915 23.2193 14.6245 23.2193V23.2193ZM14.6145 23.6822C14.7709 23.6792 14.9221 23.7383 15.035 23.8465C15.1479 23.9548 15.2133 24.1033 15.2169 24.2597H13.9823C13.9914 24.1 14.0626 23.9501 14.1807 23.8422C14.2989 23.7343 14.4546 23.6769 14.6145 23.6822V23.6822ZM27.6026 24.4688V22.3232H27.0848V23.5678C26.9964 23.4539 26.8821 23.3628 26.7513 23.3022C26.6205 23.2416 26.4771 23.2131 26.3331 23.2193C26.0123 23.235 25.7098 23.3735 25.4883 23.6061C25.2668 23.8387 25.1433 24.1476 25.1433 24.4688C25.1433 24.79 25.2668 25.0989 25.4883 25.3315C25.7098 25.5641 26.0123 25.7026 26.3331 25.7183C26.4771 25.7245 26.6205 25.6961 26.7513 25.6354C26.8821 25.5748 26.9964 25.4837 27.0848 25.3698V25.6586H27.6026V24.4688ZM28.4656 25.3137C28.4977 25.3135 28.5296 25.3198 28.5592 25.3323C28.5877 25.3442 28.6137 25.3614 28.6358 25.383C28.6577 25.4046 28.6752 25.4302 28.6873 25.4584C28.6998 25.4874 28.7062 25.5186 28.7062 25.5501C28.7062 25.5817 28.6998 25.6129 28.6873 25.6419C28.6751 25.67 28.6576 25.6954 28.6358 25.7169C28.6137 25.7385 28.5877 25.7558 28.5592 25.7679C28.5297 25.7806 28.4978 25.787 28.4656 25.7868C28.4182 25.7873 28.3718 25.7738 28.332 25.748C28.2923 25.7222 28.261 25.6853 28.2421 25.6419C28.2297 25.6129 28.2233 25.5817 28.2233 25.5501C28.2233 25.5186 28.2297 25.4874 28.2421 25.4584C28.2543 25.4302 28.2717 25.4046 28.2935 25.383C28.3155 25.3613 28.3416 25.344 28.3703 25.3323C28.4005 25.3198 28.4329 25.3135 28.4656 25.3137V25.3137ZM28.4656 25.7346C28.4901 25.7348 28.5144 25.7299 28.5369 25.7201C28.5586 25.7107 28.5782 25.6974 28.5949 25.6807C28.6292 25.646 28.6485 25.5991 28.6485 25.5502C28.6485 25.5014 28.6292 25.4545 28.5949 25.4198C28.5782 25.4032 28.5586 25.3899 28.5369 25.3807C28.5144 25.3711 28.4901 25.3663 28.4656 25.3665C28.4406 25.3663 28.4159 25.3711 28.3929 25.3807C28.3709 25.3898 28.3509 25.403 28.334 25.4198C28.2996 25.4545 28.2803 25.5014 28.2803 25.5502C28.2803 25.5991 28.2996 25.646 28.334 25.6807C28.3509 25.6975 28.3709 25.7109 28.3929 25.7201C28.4159 25.7298 28.4406 25.7348 28.4656 25.7346V25.7346ZM28.4795 25.4395C28.5028 25.438 28.5259 25.4447 28.5448 25.4584C28.5523 25.4646 28.5583 25.4724 28.5622 25.4813C28.5662 25.4902 28.5681 25.4999 28.5676 25.5097C28.5679 25.518 28.5664 25.5263 28.5633 25.5341C28.5601 25.5418 28.5554 25.5488 28.5494 25.5546C28.535 25.5674 28.5167 25.575 28.4975 25.5763L28.5694 25.6592H28.5132L28.4465 25.5769H28.425V25.6592H28.3781V25.4395H28.4795ZM28.425 25.4807V25.5393H28.479C28.4893 25.5398 28.4996 25.5372 28.5085 25.532C28.5122 25.5295 28.5151 25.5262 28.517 25.5223C28.5189 25.5184 28.5198 25.514 28.5195 25.5097C28.5198 25.5054 28.5189 25.5011 28.5169 25.4973C28.515 25.4935 28.5121 25.4903 28.5085 25.4879C28.4996 25.4827 28.4893 25.4802 28.479 25.4807H28.425ZM25.676 24.4688C25.6841 24.3283 25.733 24.1934 25.8169 24.0804C25.9007 23.9675 26.0157 23.8816 26.1478 23.8333C26.2799 23.785 26.4232 23.7764 26.5602 23.8086C26.6971 23.8407 26.8216 23.9123 26.9183 24.0144C27.015 24.1164 27.0798 24.2446 27.1046 24.383C27.1293 24.5215 27.113 24.6642 27.0577 24.7935C27.0024 24.9227 26.9104 25.033 26.7931 25.1107C26.6759 25.1883 26.5385 25.23 26.3978 25.2304C26.2992 25.2318 26.2015 25.2127 26.1106 25.1743C26.0198 25.136 25.9379 25.0793 25.8701 25.0077C25.8023 24.9361 25.75 24.8513 25.7166 24.7585C25.6832 24.6658 25.6694 24.5671 25.676 24.4688V24.4688ZM8.19264 24.4688V23.279H7.67489V23.5678C7.58652 23.4539 7.47217 23.3628 7.34139 23.3022C7.21061 23.2416 7.0672 23.2131 6.92319 23.2193C6.60238 23.235 6.29992 23.3735 6.07844 23.6061C5.85695 23.8387 5.73342 24.1476 5.73342 24.4688C5.73342 24.79 5.85695 25.0989 6.07844 25.3315C6.29992 25.5641 6.60238 25.7026 6.92319 25.7183C7.06721 25.7245 7.21061 25.6961 7.34139 25.6354C7.47217 25.5748 7.58652 25.4837 7.67489 25.3698V25.6586H8.19264V24.4688ZM6.2661 24.4688C6.27414 24.3283 6.32311 24.1934 6.40695 24.0804C6.49079 23.9675 6.60584 23.8816 6.73792 23.8333C6.87 23.785 7.01334 23.7764 7.15025 23.8086C7.28716 23.8407 7.41166 23.9123 7.5084 24.0144C7.60514 24.1164 7.66989 24.2446 7.69466 24.3831C7.71943 24.5215 7.70314 24.6642 7.6478 24.7935C7.59246 24.9227 7.50049 25.033 7.38323 25.1107C7.26597 25.1883 7.12855 25.23 6.98791 25.2304C6.88934 25.2318 6.79155 25.2127 6.70072 25.1743C6.60989 25.136 6.52799 25.0793 6.46018 25.0077C6.39237 24.9361 6.34011 24.8513 6.30671 24.7585C6.27331 24.6658 6.25948 24.5671 6.2661 24.4688V24.4688Z" fill="#231F20"/>
<path d="M18.4208 5.14404H10.5791V19.2358H18.4208V5.14404Z" fill="#FF5F00"/>
<path d="M11.0772 12.1905C11.076 10.8333 11.3835 9.4937 11.9766 8.27299C12.5696 7.05227 13.4326 5.98247 14.5002 5.14458C13.1781 4.1054 11.5903 3.45916 9.91835 3.2797C8.24636 3.10024 6.55761 3.39482 5.04512 4.12977C3.53263 4.86471 2.25743 6.01036 1.36527 7.43578C0.473118 8.8612 0 10.5089 0 12.1905C0 13.8721 0.473118 15.5197 1.36527 16.9452C2.25743 18.3706 3.53263 19.5162 5.04512 20.2512C6.55761 20.9861 8.24636 21.2807 9.91835 21.1012C11.5903 20.9218 13.1781 20.2755 14.5002 19.2364C13.4326 18.3985 12.5696 17.3287 11.9766 16.108C11.3835 14.8872 11.076 13.5476 11.0772 12.1905V12.1905Z" fill="#EB001B"/>
<path d="M28.9997 12.1905C28.9998 13.872 28.5267 15.5197 27.6346 16.9451C26.7425 18.3705 25.4674 19.5162 23.9549 20.2512C22.4424 20.9861 20.7537 21.2807 19.0817 21.1012C17.4098 20.9218 15.822 20.2755 14.5 19.2363C15.5667 18.3976 16.429 17.3276 17.0219 16.1071C17.6148 14.8866 17.9229 13.5474 17.9229 12.1905C17.9229 10.8335 17.6148 9.49433 17.0219 8.27381C16.429 7.05329 15.5667 5.98332 14.5 5.14458C15.822 4.1054 17.4098 3.45915 19.0817 3.2797C20.7537 3.10024 22.4424 3.39483 23.9549 4.12978C25.4674 4.86473 26.7425 6.01039 27.6346 7.43581C28.5267 8.86123 28.9998 10.5089 28.9997 12.1905V12.1905Z" fill="#F79E1B"/>
<path d="M28.1448 17.7434V17.4549H28.2611V17.3961H27.9648V17.4549H28.0812V17.7434H28.1448ZM28.72 17.7434V17.3955H28.6291L28.5247 17.6348L28.4202 17.3955H28.3293V17.7434H28.3935V17.481L28.4914 17.7072H28.5579L28.6559 17.4804V17.7434H28.72Z" fill="#F79E1B"/>
</svg>
